<svg xmlns="http://www.w3.org/2000/svg" width="35" height="31" viewBox="0 0 35 31" fill="none"><g clip-path="url(#clip0_14_249)"><path d="M34.9999 0H33.9893V30.5811H34.9999V0Z" fill="#E01E1F"></path><path d="M1.01069 0H0V30.5811H1.01069V0Z" fill="#E01E1F"></path><path d="M18.0054 6.96722V0H16.9947V6.96722C16.6236 7.15326 16.3682 7.53541 16.3682 7.97891V30.5811H18.6319V7.97891C18.6319 7.53541 18.3765 7.15326 18.0054 6.96722Z" fill="#E01E1F"></path><path d="M10.1964 0H9.56982V12.5617C9.56982 13.0052 9.82526 13.3874 10.1964 13.5734V30.5811H11.207V13.5734C11.5781 13.3874 11.8336 13.0052 11.8336 12.5617V0H10.1964Z" fill="#E01E1F"></path><path d="M6.79726 0H6.22705V5.71517C6.22705 6.13553 6.45634 6.50159 6.79726 6.69669V30.5811H7.80795V6.75402C8.21021 6.58004 8.4918 6.18079 8.4918 5.71517V0H6.79726Z" fill="#E01E1F"></path><path d="M3.39911 0H2.77258V2.2919C2.77258 2.7354 3.02802 3.11755 3.39911 3.30359V30.5811H4.4098V3.30359C4.78089 3.11755 5.03632 2.7354 5.03632 2.2919V0H3.39911Z" fill="#E01E1F"></path><path d="M12.969 0V30.5811H15.2327V2.26374C15.2327 1.01371 14.219 0 12.969 0Z" fill="#E01E1F"></path><path d="M23.7919 0H23.1654V12.5617C23.1654 13.0052 23.4208 13.3874 23.7919 13.5734V30.5811H24.8026V13.5734C25.1737 13.3874 25.4291 13.0052 25.4291 12.5617V0H23.7919Z" fill="#E01E1F"></path><path d="M27.1911 0H26.5072V5.71517C26.5072 6.18079 26.7888 6.58104 27.1911 6.75402V30.5811H28.2017V6.69669C28.5417 6.50159 28.772 6.13553 28.772 5.71517V0H27.1911Z" fill="#E01E1F"></path><path d="M30.5901 0H29.9636V2.2919C29.9636 2.7354 30.2191 3.11755 30.5901 3.30359V30.5811H31.6008V3.30359C31.9719 3.11755 32.2274 2.7354 32.2274 2.2919V0H30.5901Z" fill="#E01E1F"></path><path d="M19.7662 2.26374V30.5811H22.03V0C20.7799 0 19.7662 1.01371 19.7662 2.26374Z" fill="#E01E1F"></path></g><defs><clipPath id="clip0_14_249"><rect width="35" height="30.5811" fill="white"></rect></clipPath></defs></svg>